<svg xmlns="http://www.w3.org/2000/svg" viewBox="0 0 18300 300" width="18300" height="300"><g stroke="#000000" stroke-width="11" stroke-linecap="round" stroke-miterlimit="10"><path d="M150 44.5c-27.97 0-54.822 11.123-74.6 30.9-19.777 19.778-30.9 46.63-30.9 74.6 0 27.97 11.123 54.822 30.9 74.6 19.778 19.777 46.63 30.9 74.6 30.9 27.97 0 54.822-11.123 74.6-30.9 19.777-19.778 30.9-46.63 30.9-74.6 0-27.97-11.123-54.822-30.9-74.6-19.778-19.777-46.63-30.9-74.6-30.9z" fill="none"/><path d="M95 94.5c-3.844 0-7.535 1.529-10.253 4.247S80.5 105.156 80.5 109c0 3.844 1.529 7.535 4.247 10.253S91.156 123.5 95 123.5c3.844 0 7.535-1.529 10.253-4.247S109.5 112.844 109.5 109c0-3.844-1.529-7.535-4.247-10.253S98.844 94.5 95 94.5zm112 0c-3.844 0-7.535 1.529-10.253 4.247S192.5 105.156 192.5 109c0 3.844 1.529 7.535 4.247 10.253S203.156 123.5 207 123.5c3.844 0 7.535-1.529 10.253-4.247S221.5 112.844 221.5 109c0-3.844-1.529-7.535-4.247-10.253S210.844 94.5 207 94.5z" fill="#000000"/><path d="M89.5 170.5c1.73 3.45 16.8 32.24 49 38 28.55 5.1 58.68-10.03 74-38" fill="none"/></g><g stroke="#000000" stroke-width="11" stroke-linecap="round" stroke-miterlimit="10"><path d="M450 44.5c-27.97 0-54.822 11.123-74.6 30.9-19.777 19.778-30.9 46.63-30.9 74.6 0 27.97 11.123 54.822 30.9 74.6 19.778 19.777 46.63 30.9 74.6 30.9 27.97 0 54.822-11.123 74.6-30.9 19.777-19.778 30.9-46.63 30.9-74.6 0-27.97-11.123-54.822-30.9-74.6-19.778-19.777-46.63-30.9-74.6-30.9z" fill="none"/><path d="M395 94.5c-3.844 0-7.535 1.529-10.253 4.247S380.5 105.156 380.5 109c0 3.844 1.529 7.535 4.247 10.253S391.156 123.5 395 123.5c3.844 0 7.535-1.529 10.253-4.247S409.5 112.844 409.5 109c0-3.844-1.529-7.535-4.247-10.253S398.844 94.5 395 94.5zm112 0c-3.844 0-7.535 1.529-10.253 4.247S492.5 105.156 492.5 109c0 3.844 1.529 7.535 4.247 10.253S503.156 123.5 507 123.5c3.844 0 7.535-1.529 10.253-4.247S521.5 112.844 521.5 109c0-3.844-1.529-7.535-4.247-10.253S510.844 94.5 507 94.5z" fill="#000000"/><path d="M389.5 170.5c1.73 3.45 16.8 32.24 49 38 28.55 5.1 58.68-10.03 74-38" fill="none"/></g><g stroke="#000000" stroke-width="11" stroke-linecap="round" stroke-miterlimit="10"><path d="M750 44.5c-27.97 0-54.822 11.123-74.6 30.9-19.777 19.778-30.9 46.63-30.9 74.6 0 27.97 11.123 54.822 30.9 74.6 19.778 19.777 46.63 30.9 74.6 30.9 27.97 0 54.822-11.123 74.6-30.9 19.777-19.778 30.9-46.63 30.9-74.6 0-27.97-11.123-54.822-30.9-74.6-19.778-19.777-46.63-30.9-74.6-30.9z" fill="none"/><path d="M695 94.5c-3.844 0-7.535 1.529-10.253 4.247S680.5 105.156 680.5 109c0 3.844 1.529 7.535 4.247 10.253S691.156 123.5 695 123.5c3.844 0 7.535-1.529 10.253-4.247S709.5 112.844 709.5 109c0-3.844-1.529-7.535-4.247-10.253S698.844 94.5 695 94.5zm112 0c-3.844 0-7.535 1.529-10.253 4.247S792.5 105.156 792.5 109c0 3.844 1.529 7.535 4.247 10.253S803.156 123.5 807 123.5c3.844 0 7.535-1.529 10.253-4.247S821.5 112.844 821.5 109c0-3.844-1.529-7.535-4.247-10.253S810.844 94.5 807 94.5z" fill="#000000"/><path d="M689.5 170.5c1.73 3.45 16.8 32.24 49 38 28.55 5.1 58.68-10.03 74-38" fill="none"/></g><g stroke="#000000" stroke-width="11" stroke-linecap="round" stroke-miterlimit="10"><path d="M1050 44.5c-27.97 0-54.822 11.123-74.6 30.9-19.777 19.778-30.9 46.63-30.9 74.6 0 27.97 11.123 54.822 30.9 74.6 19.778 19.777 46.63 30.9 74.6 30.9 27.97 0 54.822-11.123 74.6-30.9 19.777-19.778 30.9-46.63 30.9-74.6 0-27.97-11.123-54.822-30.9-74.6-19.778-19.777-46.63-30.9-74.6-30.9z" fill="none"/><path d="M995 94.5c-3.844 0-7.535 1.529-10.253 4.247S980.5 105.156 980.5 109c0 3.844 1.529 7.535 4.247 10.253S991.156 123.5 995 123.5c3.844 0 7.535-1.529 10.253-4.247s4.247-6.409 4.247-10.253c0-3.844-1.529-7.535-4.247-10.253S998.844 94.5 995 94.5zm112 0c-3.844 0-7.535 1.529-10.253 4.247s-4.247 6.409-4.247 10.253c0 3.844 1.529 7.535 4.247 10.253s6.409 4.247 10.253 4.247c3.844 0 7.535-1.529 10.253-4.247s4.247-6.409 4.247-10.253c0-3.844-1.529-7.535-4.247-10.253S1110.844 94.5 1107 94.5z" fill="#000000"/><path d="M989.5 170.5c1.73 3.45 16.8 32.24 49 38 28.55 5.1 58.68-10.03 74-38" fill="none"/></g><g stroke="#000000" stroke-width="11" stroke-linecap="round" stroke-miterlimit="10"><path d="M1350 44.5c-27.97 0-54.822 11.123-74.6 30.9-19.777 19.778-30.9 46.63-30.9 74.6 0 27.97 11.123 54.822 30.9 74.6 19.778 19.777 46.63 30.9 74.6 30.9 27.97 0 54.822-11.123 74.6-30.9 19.777-19.778 30.9-46.63 30.9-74.6 0-27.97-11.123-54.822-30.9-74.6-19.778-19.777-46.63-30.9-74.6-30.9z" fill="none"/><path d="M1295 94.5c-3.844 0-7.535 1.529-10.253 4.247s-4.247 6.409-4.247 10.253c0 3.844 1.529 7.535 4.247 10.253s6.409 4.247 10.253 4.247c3.844 0 7.535-1.529 10.253-4.247s4.247-6.409 4.247-10.253c0-3.844-1.529-7.535-4.247-10.253S1298.844 94.5 1295 94.5zm112 0c-3.844 0-7.535 1.529-10.253 4.247s-4.247 6.409-4.247 10.253c0 3.844 1.529 7.535 4.247 10.253s6.409 4.247 10.253 4.247c3.844 0 7.535-1.529 10.253-4.247s4.247-6.409 4.247-10.253c0-3.844-1.529-7.535-4.247-10.253S1410.844 94.5 1407 94.5z" fill="#000000"/><path d="M1289.5 170.5c1.73 3.45 16.8 32.24 49 38 28.55 5.1 58.68-10.03 74-38" fill="none"/></g><g stroke="#000000" stroke-width="11" stroke-linecap="round" stroke-miterlimit="10"><path d="M1650 44.5c-27.97 0-54.822 11.123-74.6 30.9-19.777 19.778-30.9 46.63-30.9 74.6 0 27.97 11.123 54.822 30.9 74.6 19.778 19.777 46.63 30.9 74.6 30.9 27.97 0 54.822-11.123 74.6-30.9 19.777-19.778 30.9-46.63 30.9-74.6 0-27.97-11.123-54.822-30.9-74.6-19.778-19.777-46.63-30.9-74.6-30.9z" fill="none"/><path d="M1595 94.5c-3.844 0-7.535 1.529-10.253 4.247s-4.247 6.409-4.247 10.253c0 3.844 1.529 7.535 4.247 10.253s6.409 4.247 10.253 4.247c3.844 0 7.535-1.529 10.253-4.247s4.247-6.409 4.247-10.253c0-3.844-1.529-7.535-4.247-10.253S1598.844 94.5 1595 94.5zm112 0c-3.844 0-7.535 1.529-10.253 4.247s-4.247 6.409-4.247 10.253c0 3.844 1.529 7.535 4.247 10.253s6.409 4.247 10.253 4.247c3.844 0 7.535-1.529 10.253-4.247s4.247-6.409 4.247-10.253c0-3.844-1.529-7.535-4.247-10.253S1710.844 94.5 1707 94.5z" fill="#000000"/><path d="M1589.5 170.5c1.73 3.45 16.8 32.24 49 38 28.55 5.1 58.68-10.03 74-38" fill="none"/></g><g stroke="#000000" stroke-width="11" stroke-linecap="round" stroke-miterlimit="10"><path d="M1950 44.5c-27.97 0-54.822 11.123-74.6 30.9-19.777 19.778-30.9 46.63-30.9 74.6 0 27.97 11.123 54.822 30.9 74.6 19.778 19.777 46.63 30.9 74.6 30.9 27.97 0 54.822-11.123 74.6-30.9 19.777-19.778 30.9-46.63 30.9-74.6 0-27.97-11.123-54.822-30.9-74.6-19.778-19.777-46.63-30.9-74.6-30.9z" fill="none"/><path d="M1895 94.5c-3.844 0-7.535 1.529-10.253 4.247s-4.247 6.409-4.247 10.253c0 3.844 1.529 7.535 4.247 10.253s6.409 4.247 10.253 4.247c3.844 0 7.535-1.529 10.253-4.247s4.247-6.409 4.247-10.253c0-3.844-1.529-7.535-4.247-10.253S1898.844 94.5 1895 94.5zm112 0c-3.844 0-7.535 1.529-10.253 4.247s-4.247 6.409-4.247 10.253c0 3.844 1.529 7.535 4.247 10.253s6.409 4.247 10.253 4.247c3.844 0 7.535-1.529 10.253-4.247s4.247-6.409 4.247-10.253c0-3.844-1.529-7.535-4.247-10.253S2010.844 94.5 2007 94.5z" fill="#000000"/><path d="M1889.5 170.5c1.73 3.45 16.8 32.24 49 38 28.55 5.1 58.68-10.03 74-38" fill="none"/></g><g stroke="#000000" stroke-width="11" stroke-linecap="round" stroke-miterlimit="10"><path d="M2250 44.5c-27.97 0-54.822 11.123-74.6 30.9-19.777 19.778-30.9 46.63-30.9 74.6 0 27.97 11.123 54.822 30.9 74.6 19.778 19.777 46.63 30.9 74.6 30.9 27.97 0 54.822-11.123 74.6-30.9 19.777-19.778 30.9-46.63 30.9-74.6 0-27.97-11.123-54.822-30.9-74.6-19.778-19.777-46.63-30.9-74.6-30.9z" fill="none"/><path d="M2195 94.5c-3.844 0-7.535 1.529-10.253 4.247s-4.247 6.409-4.247 10.253c0 3.844 1.529 7.535 4.247 10.253s6.409 4.247 10.253 4.247c3.844 0 7.535-1.529 10.253-4.247s4.247-6.409 4.247-10.253c0-3.844-1.529-7.535-4.247-10.253S2198.844 94.5 2195 94.5zm112 0c-3.844 0-7.535 1.529-10.253 4.247s-4.247 6.409-4.247 10.253c0 3.844 1.529 7.535 4.247 10.253s6.409 4.247 10.253 4.247c3.844 0 7.535-1.529 10.253-4.247s4.247-6.409 4.247-10.253c0-3.844-1.529-7.535-4.247-10.253S2310.844 94.5 2307 94.5z" fill="#000000"/><path d="M2189.5 170.5c1.73 3.45 16.8 32.24 49 38 28.55 5.1 58.68-10.03 74-38" fill="none"/></g><g stroke="#000000" stroke-width="11" stroke-linecap="round" stroke-miterlimit="10"><path d="M2550 44.5c-27.97 0-54.822 11.123-74.6 30.9-19.777 19.778-30.9 46.63-30.9 74.6 0 27.97 11.123 54.822 30.9 74.6 19.778 19.777 46.63 30.9 74.6 30.9 27.97 0 54.822-11.123 74.6-30.9 19.777-19.778 30.9-46.63 30.9-74.6 0-27.97-11.123-54.822-30.9-74.6-19.778-19.777-46.63-30.9-74.6-30.9z" fill="none"/><path d="M2495 94.5c-3.844 0-7.535 1.529-10.253 4.247s-4.247 6.409-4.247 10.253c0 3.844 1.529 7.535 4.247 10.253s6.409 4.247 10.253 4.247c3.844 0 7.535-1.529 10.253-4.247s4.247-6.409 4.247-10.253c0-3.844-1.529-7.535-4.247-10.253S2498.844 94.5 2495 94.5zm112 0c-3.844 0-7.535 1.529-10.253 4.247s-4.247 6.409-4.247 10.253c0 3.844 1.529 7.535 4.247 10.253s6.409 4.247 10.253 4.247c3.844 0 7.535-1.529 10.253-4.247s4.247-6.409 4.247-10.253c0-3.844-1.529-7.535-4.247-10.253S2610.844 94.5 2607 94.5z" fill="#000000"/><path d="M2489.5 170.5c1.73 3.45 16.8 32.24 49 38 28.55 5.1 58.68-10.03 74-38" fill="none"/></g><g stroke="#000000" stroke-width="11" stroke-linecap="round" stroke-miterlimit="10"><path d="M2850 44.5c-27.97 0-54.822 11.123-74.6 30.9-19.777 19.778-30.9 46.63-30.9 74.6 0 27.97 11.123 54.822 30.9 74.6 19.778 19.777 46.63 30.9 74.6 30.9 27.97 0 54.822-11.123 74.6-30.9 19.777-19.778 30.9-46.63 30.9-74.6 0-27.97-11.123-54.822-30.9-74.6-19.778-19.777-46.63-30.9-74.6-30.9z" fill="none"/><path d="M2795 94.5c-3.844 0-7.535 1.529-10.253 4.247s-4.247 6.409-4.247 10.253c0 3.844 1.529 7.535 4.247 10.253s6.409 4.247 10.253 4.247c3.844 0 7.535-1.529 10.253-4.247s4.247-6.409 4.247-10.253c0-3.844-1.529-7.535-4.247-10.253S2798.844 94.5 2795 94.5zm112 0c-3.844 0-7.535 1.529-10.253 4.247s-4.247 6.409-4.247 10.253c0 3.844 1.529 7.535 4.247 10.253s6.409 4.247 10.253 4.247c3.844 0 7.535-1.529 10.253-4.247s4.247-6.409 4.247-10.253c0-3.844-1.529-7.535-4.247-10.253S2910.844 94.5 2907 94.5z" fill="#000000"/><path d="M2789.5 170.5c1.73 3.45 16.8 32.24 49 38 28.55 5.1 58.68-10.03 74-38" fill="none"/></g><g stroke="#000000" stroke-width="11" stroke-linecap="round" stroke-miterlimit="10"><path d="M3150 44.5c-27.97 0-54.822 11.123-74.6 30.9-19.777 19.778-30.9 46.63-30.9 74.6 0 27.97 11.123 54.822 30.9 74.6 19.778 19.777 46.63 30.9 74.6 30.9 27.97 0 54.822-11.123 74.6-30.9 19.777-19.778 30.9-46.63 30.9-74.6 0-27.97-11.123-54.822-30.9-74.6-19.778-19.777-46.63-30.9-74.6-30.9z" fill="none"/><path d="M3095 94.5c-3.844 0-7.535 1.529-10.253 4.247s-4.247 6.409-4.247 10.253c0 3.844 1.529 7.535 4.247 10.253s6.409 4.247 10.253 4.247c3.844 0 7.535-1.529 10.253-4.247s4.247-6.409 4.247-10.253c0-3.844-1.529-7.535-4.247-10.253S3098.844 94.5 3095 94.5zm112 0c-3.844 0-7.535 1.529-10.253 4.247s-4.247 6.409-4.247 10.253c0 3.844 1.529 7.535 4.247 10.253s6.409 4.247 10.253 4.247c3.844 0 7.535-1.529 10.253-4.247s4.247-6.409 4.247-10.253c0-3.844-1.529-7.535-4.247-10.253S3210.844 94.5 3207 94.5z" fill="#000000"/><path d="M3089.5 170.5c1.73 3.45 16.8 32.24 49 38 28.55 5.1 58.68-10.03 74-38" fill="none"/></g><g stroke="#000000" stroke-width="11" stroke-linecap="round" stroke-miterlimit="10"><path d="M3450 44.5c-27.97 0-54.822 11.123-74.6 30.9-19.777 19.778-30.9 46.63-30.9 74.6 0 27.97 11.123 54.822 30.9 74.6 19.778 19.777 46.63 30.9 74.6 30.9 27.97 0 54.822-11.123 74.6-30.9 19.777-19.778 30.9-46.63 30.9-74.6 0-27.97-11.123-54.822-30.9-74.6-19.778-19.777-46.63-30.9-74.6-30.9z" fill="none"/><path d="M3395 94.5c-3.844 0-7.535 1.529-10.253 4.247s-4.247 6.409-4.247 10.253c0 3.844 1.529 7.535 4.247 10.253s6.409 4.247 10.253 4.247c3.844 0 7.535-1.529 10.253-4.247s4.247-6.409 4.247-10.253c0-3.844-1.529-7.535-4.247-10.253S3398.844 94.5 3395 94.5zm112 0c-3.844 0-7.535 1.529-10.253 4.247s-4.247 6.409-4.247 10.253c0 3.844 1.529 7.535 4.247 10.253s6.409 4.247 10.253 4.247c3.844 0 7.535-1.529 10.253-4.247s4.247-6.409 4.247-10.253c0-3.844-1.529-7.535-4.247-10.253S3510.844 94.5 3507 94.5z" fill="#000000"/><path d="M3389.5 170.5c1.73 3.45 16.8 32.24 49 38 28.55 5.1 58.68-10.03 74-38" fill="none"/></g><g stroke="#000000" stroke-width="11" stroke-linecap="round" stroke-miterlimit="10"><path d="M3750 44.5c-27.97 0-54.822 11.123-74.6 30.9-19.777 19.778-30.9 46.63-30.9 74.6 0 27.97 11.123 54.822 30.9 74.6 19.778 19.777 46.63 30.9 74.6 30.9 27.97 0 54.822-11.123 74.6-30.9 19.777-19.778 30.9-46.63 30.9-74.6 0-27.97-11.123-54.822-30.9-74.6-19.778-19.777-46.63-30.9-74.6-30.9z" fill="none"/><path d="M3695 94.5c-3.844 0-7.535 1.529-10.253 4.247s-4.247 6.409-4.247 10.253c0 3.844 1.529 7.535 4.247 10.253s6.409 4.247 10.253 4.247c3.844 0 7.535-1.529 10.253-4.247s4.247-6.409 4.247-10.253c0-3.844-1.529-7.535-4.247-10.253S3698.844 94.5 3695 94.5zm112 0c-3.844 0-7.535 1.529-10.253 4.247s-4.247 6.409-4.247 10.253c0 3.844 1.529 7.535 4.247 10.253s6.409 4.247 10.253 4.247c3.844 0 7.535-1.529 10.253-4.247s4.247-6.409 4.247-10.253c0-3.844-1.529-7.535-4.247-10.253S3810.844 94.5 3807 94.5z" fill="#000000"/><path d="M3689.5 170.5c1.73 3.45 16.8 32.24 49 38 28.55 5.1 58.68-10.03 74-38" fill="none"/></g><g stroke="#000000" stroke-width="11" stroke-linecap="round" stroke-miterlimit="10"><path d="M4050 44.5c-27.97 0-54.822 11.123-74.6 30.9-19.777 19.778-30.9 46.63-30.9 74.6 0 27.97 11.123 54.822 30.9 74.6 19.778 19.777 46.63 30.9 74.6 30.9 27.97 0 54.822-11.123 74.6-30.9 19.777-19.778 30.9-46.63 30.9-74.6 0-27.97-11.123-54.822-30.9-74.6-19.778-19.777-46.63-30.9-74.6-30.9z" fill="none"/><path d="M3995 94.5c-3.844 0-7.535 1.529-10.253 4.247s-4.247 6.409-4.247 10.253c0 3.844 1.529 7.535 4.247 10.253s6.409 4.247 10.253 4.247c3.844 0 7.535-1.529 10.253-4.247s4.247-6.409 4.247-10.253c0-3.844-1.529-7.535-4.247-10.253S3998.844 94.5 3995 94.5zm112 0c-3.844 0-7.535 1.529-10.253 4.247s-4.247 6.409-4.247 10.253c0 3.844 1.529 7.535 4.247 10.253s6.409 4.247 10.253 4.247c3.844 0 7.535-1.529 10.253-4.247s4.247-6.409 4.247-10.253c0-3.844-1.529-7.535-4.247-10.253S4110.844 94.5 4107 94.5z" fill="#000000"/><path d="M3989.5 170.5c1.73 3.45 16.8 32.24 49 38 28.55 5.1 58.68-10.03 74-38" fill="none"/></g><g stroke="#000000" stroke-width="11" stroke-linecap="round" stroke-miterlimit="10"><path d="M4350 44.5c-27.97 0-54.822 11.123-74.6 30.9-19.777 19.778-30.9 46.63-30.9 74.6 0 27.97 11.123 54.822 30.9 74.6 19.778 19.777 46.63 30.9 74.6 30.9 27.97 0 54.822-11.123 74.6-30.9 19.777-19.778 30.9-46.63 30.9-74.6 0-27.97-11.123-54.822-30.9-74.6-19.778-19.777-46.63-30.9-74.6-30.9z" fill="none"/><path d="M4295 94.5c-3.844 0-7.535 1.529-10.253 4.247s-4.247 6.409-4.247 10.253c0 3.844 1.529 7.535 4.247 10.253s6.409 4.247 10.253 4.247c3.844 0 7.535-1.529 10.253-4.247s4.247-6.409 4.247-10.253c0-3.844-1.529-7.535-4.247-10.253S4298.844 94.5 4295 94.5zm112 0c-3.844 0-7.535 1.529-10.253 4.247s-4.247 6.409-4.247 10.253c0 3.844 1.529 7.535 4.247 10.253s6.409 4.247 10.253 4.247c3.844 0 7.535-1.529 10.253-4.247s4.247-6.409 4.247-10.253c0-3.844-1.529-7.535-4.247-10.253S4410.844 94.5 4407 94.5z" fill="#000000"/><path d="M4289.5 170.5c1.73 3.45 16.8 32.24 49 38 28.55 5.1 58.68-10.03 74-38" fill="none"/></g><g stroke="#000000" stroke-width="11" stroke-linecap="round" stroke-miterlimit="10"><path d="M4650 44.5c-27.97 0-54.822 11.123-74.6 30.9-19.777 19.778-30.9 46.63-30.9 74.6 0 27.97 11.123 54.822 30.9 74.6 19.778 19.777 46.63 30.9 74.6 30.9 27.97 0 54.822-11.123 74.6-30.9 19.777-19.778 30.9-46.63 30.9-74.6 0-27.97-11.123-54.822-30.9-74.6-19.778-19.777-46.63-30.9-74.6-30.9z" fill="none"/><path d="M4595 94.5c-3.844 0-7.535 1.529-10.253 4.247s-4.247 6.409-4.247 10.253c0 3.844 1.529 7.535 4.247 10.253s6.409 4.247 10.253 4.247c3.844 0 7.535-1.529 10.253-4.247s4.247-6.409 4.247-10.253c0-3.844-1.529-7.535-4.247-10.253S4598.844 94.5 4595 94.5zm112 0c-3.844 0-7.535 1.529-10.253 4.247s-4.247 6.409-4.247 10.253c0 3.844 1.529 7.535 4.247 10.253s6.409 4.247 10.253 4.247c3.844 0 7.535-1.529 10.253-4.247s4.247-6.409 4.247-10.253c0-3.844-1.529-7.535-4.247-10.253S4710.844 94.5 4707 94.5z" fill="#000000"/><path d="M4589.5 170.5c1.73 3.45 16.8 32.24 49 38 28.55 5.1 58.68-10.03 74-38" fill="none"/></g><g stroke="#000000" stroke-width="11" stroke-linecap="round" stroke-miterlimit="10"><path d="M4950 44.5c-27.97 0-54.822 11.123-74.6 30.9-19.777 19.778-30.9 46.63-30.9 74.6 0 27.97 11.123 54.822 30.9 74.6 19.778 19.777 46.63 30.9 74.6 30.9 27.97 0 54.822-11.123 74.6-30.9 19.777-19.778 30.9-46.63 30.9-74.6 0-27.97-11.123-54.822-30.9-74.6-19.778-19.777-46.63-30.9-74.6-30.9z" fill="none"/><path d="M4895 94.5c-3.844 0-7.535 1.529-10.253 4.247s-4.247 6.409-4.247 10.253c0 3.844 1.529 7.535 4.247 10.253s6.409 4.247 10.253 4.247c3.844 0 7.535-1.529 10.253-4.247s4.247-6.409 4.247-10.253c0-3.844-1.529-7.535-4.247-10.253S4898.844 94.5 4895 94.5zm112 0c-3.844 0-7.535 1.529-10.253 4.247s-4.247 6.409-4.247 10.253c0 3.844 1.529 7.535 4.247 10.253s6.409 4.247 10.253 4.247c3.844 0 7.535-1.529 10.253-4.247s4.247-6.409 4.247-10.253c0-3.844-1.529-7.535-4.247-10.253S5010.844 94.5 5007 94.5z" fill="#000000"/><path d="M4889.5 170.5c1.73 3.45 16.8 32.24 49 38 28.55 5.1 58.68-10.03 74-38" fill="none"/></g><g stroke="#000000" stroke-width="11" stroke-linecap="round" stroke-miterlimit="10"><path d="M5250 44.5c-27.97 0-54.822 11.123-74.6 30.9-19.777 19.778-30.9 46.63-30.9 74.6 0 27.97 11.123 54.822 30.9 74.6 19.778 19.777 46.63 30.9 74.6 30.9 27.97 0 54.822-11.123 74.6-30.9 19.777-19.778 30.9-46.63 30.9-74.6 0-27.97-11.123-54.822-30.9-74.6-19.778-19.777-46.63-30.9-74.6-30.9z" fill="none"/><path d="M5195 94.5c-3.844 0-7.535 1.529-10.253 4.247s-4.247 6.409-4.247 10.253c0 3.844 1.529 7.535 4.247 10.253s6.409 4.247 10.253 4.247c3.844 0 7.535-1.529 10.253-4.247s4.247-6.409 4.247-10.253c0-3.844-1.529-7.535-4.247-10.253S5198.844 94.5 5195 94.5zm112 0c-3.844 0-7.535 1.529-10.253 4.247s-4.247 6.409-4.247 10.253c0 3.844 1.529 7.535 4.247 10.253s6.409 4.247 10.253 4.247c3.844 0 7.535-1.529 10.253-4.247s4.247-6.409 4.247-10.253c0-3.844-1.529-7.535-4.247-10.253S5310.844 94.5 5307 94.5z" fill="#000000"/><path d="M5189.5 170.5c1.73 3.45 16.8 32.24 49 38 28.55 5.1 58.68-10.03 74-38" fill="none"/></g><g stroke="#000000" stroke-width="11" stroke-linecap="round" stroke-miterlimit="10"><path d="M5550 44.5c-27.97 0-54.822 11.123-74.6 30.9-19.777 19.778-30.9 46.63-30.9 74.6 0 27.97 11.123 54.822 30.9 74.6 19.778 19.777 46.63 30.9 74.6 30.9 27.97 0 54.822-11.123 74.6-30.9 19.777-19.778 30.9-46.63 30.9-74.6 0-27.97-11.123-54.822-30.9-74.6-19.778-19.777-46.63-30.9-74.6-30.9z" fill="none"/><path d="M5495 94.5c-3.844 0-7.535 1.529-10.253 4.247s-4.247 6.409-4.247 10.253c0 3.844 1.529 7.535 4.247 10.253s6.409 4.247 10.253 4.247c3.844 0 7.535-1.529 10.253-4.247s4.247-6.409 4.247-10.253c0-3.844-1.529-7.535-4.247-10.253S5498.844 94.5 5495 94.5zm112 0c-3.844 0-7.535 1.529-10.253 4.247s-4.247 6.409-4.247 10.253c0 3.844 1.529 7.535 4.247 10.253s6.409 4.247 10.253 4.247c3.844 0 7.535-1.529 10.253-4.247s4.247-6.409 4.247-10.253c0-3.844-1.529-7.535-4.247-10.253S5610.844 94.5 5607 94.5z" fill="#000000"/><path d="M5489.5 170.5c1.73 3.45 16.8 32.24 49 38 28.55 5.1 58.68-10.03 74-38" fill="none"/></g><g stroke="#000000" stroke-width="11" stroke-linecap="round" stroke-miterlimit="10"><path d="M5850 44.5c-27.97 0-54.822 11.123-74.6 30.9-19.777 19.778-30.9 46.63-30.9 74.6 0 27.97 11.123 54.822 30.9 74.6 19.778 19.777 46.63 30.9 74.6 30.9 27.97 0 54.822-11.123 74.6-30.9 19.777-19.778 30.9-46.63 30.9-74.6 0-27.97-11.123-54.822-30.9-74.6-19.778-19.777-46.63-30.9-74.6-30.9z" fill="none"/><path d="M5795 94.5c-3.844 0-7.535 1.529-10.253 4.247s-4.247 6.409-4.247 10.253c0 3.844 1.529 7.535 4.247 10.253s6.409 4.247 10.253 4.247c3.844 0 7.535-1.529 10.253-4.247s4.247-6.409 4.247-10.253c0-3.844-1.529-7.535-4.247-10.253S5798.844 94.5 5795 94.5zm112 0c-3.844 0-7.535 1.529-10.253 4.247s-4.247 6.409-4.247 10.253c0 3.844 1.529 7.535 4.247 10.253s6.409 4.247 10.253 4.247c3.844 0 7.535-1.529 10.253-4.247s4.247-6.409 4.247-10.253c0-3.844-1.529-7.535-4.247-10.253S5910.844 94.5 5907 94.5z" fill="#000000"/><path d="M5789.5 170.781c1.73 3.4 16.8 31.775 49 37.452 28.55 5.027 58.68-9.885 74-37.452" fill="none"/></g><g stroke="#000000" stroke-width="11" stroke-linecap="round" stroke-miterlimit="10"><path d="M6150 44.5c-27.97 0-54.822 11.123-74.6 30.9-19.777 19.778-30.9 46.63-30.9 74.6 0 27.97 11.123 54.822 30.9 74.6 19.778 19.777 46.63 30.9 74.6 30.9 27.97 0 54.822-11.123 74.6-30.9 19.777-19.778 30.9-46.63 30.9-74.6 0-27.97-11.123-54.822-30.9-74.6-19.778-19.777-46.63-30.9-74.6-30.9z" fill="none"/><path d="M6095 94.5c-3.844 0-7.535 1.529-10.253 4.247s-4.247 6.409-4.247 10.253c0 3.844 1.529 7.535 4.247 10.253s6.409 4.247 10.253 4.247c3.844 0 7.535-1.529 10.253-4.247s4.247-6.409 4.247-10.253c0-3.844-1.529-7.535-4.247-10.253S6098.844 94.5 6095 94.5zm112 0c-3.844 0-7.535 1.529-10.253 4.247s-4.247 6.409-4.247 10.253c0 3.844 1.529 7.535 4.247 10.253s6.409 4.247 10.253 4.247c3.844 0 7.535-1.529 10.253-4.247s4.247-6.409 4.247-10.253c0-3.844-1.529-7.535-4.247-10.253S6210.844 94.5 6207 94.5z" fill="#000000"/><path d="M6089.5 171.779c1.73 3.223 16.8 30.125 49 35.507 28.55 4.765 58.68-9.372 74-35.507" fill="none"/></g><g stroke="#000000" stroke-width="11" stroke-linecap="round" stroke-miterlimit="10"><path d="M6450 44.5c-27.97 0-54.822 11.123-74.6 30.9-19.777 19.778-30.9 46.63-30.9 74.6 0 27.97 11.123 54.822 30.9 74.6 19.778 19.777 46.63 30.9 74.6 30.9 27.97 0 54.822-11.123 74.6-30.9 19.777-19.778 30.9-46.63 30.9-74.6 0-27.97-11.123-54.822-30.9-74.6-19.778-19.777-46.63-30.9-74.6-30.9z" fill="none"/><path d="M6395 94.5c-3.844 0-7.535 1.529-10.253 4.247s-4.247 6.409-4.247 10.253c0 3.844 1.529 7.535 4.247 10.253s6.409 4.247 10.253 4.247c3.844 0 7.535-1.529 10.253-4.247s4.247-6.409 4.247-10.253c0-3.844-1.529-7.535-4.247-10.253S6398.844 94.5 6395 94.5zm112 0c-3.844 0-7.535 1.529-10.253 4.247s-4.247 6.409-4.247 10.253c0 3.844 1.529 7.535 4.247 10.253s6.409 4.247 10.253 4.247c3.844 0 7.535-1.529 10.253-4.247s4.247-6.409 4.247-10.253c0-3.844-1.529-7.535-4.247-10.253S6510.844 94.5 6507 94.5z" fill="#000000"/><path d="M6389.5 173.817c1.73 2.863 16.8 26.753 49 31.532 28.55 4.232 58.68-8.322 74-31.532" fill="none"/></g><g stroke="#000000" stroke-width="11" stroke-linecap="round" stroke-miterlimit="10"><path d="M6750 44.5c-27.97 0-54.822 11.123-74.6 30.9-19.777 19.778-30.9 46.63-30.9 74.6 0 27.97 11.123 54.822 30.9 74.6 19.778 19.777 46.63 30.9 74.6 30.9 27.97 0 54.822-11.123 74.6-30.9 19.777-19.778 30.9-46.63 30.9-74.6 0-27.97-11.123-54.822-30.9-74.6-19.778-19.777-46.63-30.9-74.6-30.9z" fill="none"/><path d="M6695 94.5c-3.844 0-7.535 1.529-10.253 4.247s-4.247 6.409-4.247 10.253c0 3.844 1.529 7.535 4.247 10.253s6.409 4.247 10.253 4.247c3.844 0 7.535-1.529 10.253-4.247s4.247-6.409 4.247-10.253c0-3.844-1.529-7.535-4.247-10.253S6698.844 94.5 6695 94.5zm112 0c-3.844 0-7.535 1.529-10.253 4.247s-4.247 6.409-4.247 10.253c0 3.844 1.529 7.535 4.247 10.253s6.409 4.247 10.253 4.247c3.844 0 7.535-1.529 10.253-4.247s4.247-6.409 4.247-10.253c0-3.844-1.529-7.535-4.247-10.253S6810.844 94.5 6807 94.5z" fill="#000000"/><path d="M6689.5 177.328c1.73 2.241 16.8 20.945 49 24.687 28.55 3.314 58.68-6.516 74-24.687" fill="none"/></g><g stroke="#000000" stroke-width="11" stroke-linecap="round" stroke-miterlimit="10"><path d="M7050 44.5c-27.97 0-54.822 11.123-74.6 30.9-19.777 19.778-30.9 46.63-30.9 74.6 0 27.97 11.123 54.822 30.9 74.6 19.778 19.777 46.63 30.9 74.6 30.9 27.97 0 54.822-11.123 74.6-30.9 19.777-19.778 30.9-46.63 30.9-74.6 0-27.97-11.123-54.822-30.9-74.6-19.778-19.777-46.63-30.9-74.6-30.9z" fill="none"/><path d="M6995 94.5c-3.844 0-7.535 1.529-10.253 4.247s-4.247 6.409-4.247 10.253c0 3.844 1.529 7.535 4.247 10.253s6.409 4.247 10.253 4.247c3.844 0 7.535-1.529 10.253-4.247s4.247-6.409 4.247-10.253c0-3.844-1.529-7.535-4.247-10.253S6998.844 94.5 6995 94.5zm112 0c-3.844 0-7.535 1.529-10.253 4.247s-4.247 6.409-4.247 10.253c0 3.844 1.529 7.535 4.247 10.253s6.409 4.247 10.253 4.247c3.844 0 7.535-1.529 10.253-4.247s4.247-6.409 4.247-10.253c0-3.844-1.529-7.535-4.247-10.253S7110.844 94.5 7107 94.5z" fill="#000000"/><path d="M6989.5 182.472c1.73 1.331 16.8 12.436 49 14.658 28.55 1.967 58.68-3.869 74-14.658" fill="none"/></g><g stroke="#000000" stroke-width="11" stroke-linecap="round" stroke-miterlimit="10"><path d="M7350 44.5c-27.97 0-54.822 11.123-74.6 30.9-19.777 19.778-30.9 46.63-30.9 74.6 0 27.97 11.123 54.822 30.9 74.6 19.778 19.777 46.63 30.9 74.6 30.9 27.97 0 54.822-11.123 74.6-30.9 19.777-19.778 30.9-46.63 30.9-74.6 0-27.97-11.123-54.822-30.9-74.6-19.778-19.777-46.63-30.9-74.6-30.9z" fill="none"/><path d="M7295 94.5c-3.844 0-7.535 1.529-10.253 4.247s-4.247 6.409-4.247 10.253c0 3.844 1.529 7.535 4.247 10.253s6.409 4.247 10.253 4.247c3.844 0 7.535-1.529 10.253-4.247s4.247-6.409 4.247-10.253c0-3.844-1.529-7.535-4.247-10.253S7298.844 94.5 7295 94.5zm112 0c-3.844 0-7.535 1.529-10.253 4.247s-4.247 6.409-4.247 10.253c0 3.844 1.529 7.535 4.247 10.253s6.409 4.247 10.253 4.247c3.844 0 7.535-1.529 10.253-4.247s4.247-6.409 4.247-10.253c0-3.844-1.529-7.535-4.247-10.253S7410.844 94.5 7407 94.5z" fill="#000000"/><path d="M7289.5 188.324c1.73.295 16.8 2.756 49 3.249 28.55.436 58.68-.858 74-3.249" fill="none"/></g><g stroke="#000000" stroke-width="11" stroke-linecap="round" stroke-miterlimit="10"><path d="M7650 44.5c-27.97 0-54.822 11.123-74.6 30.9-19.777 19.778-30.9 46.63-30.9 74.6 0 27.97 11.123 54.822 30.9 74.6 19.778 19.777 46.63 30.9 74.6 30.9 27.97 0 54.822-11.123 74.6-30.9 19.777-19.778 30.9-46.63 30.9-74.6 0-27.97-11.123-54.822-30.9-74.6-19.778-19.777-46.63-30.9-74.6-30.9z" fill="none"/><path d="M7595 94.5c-3.844 0-7.535 1.529-10.253 4.247s-4.247 6.409-4.247 10.253c0 3.844 1.529 7.535 4.247 10.253s6.409 4.247 10.253 4.247c3.844 0 7.535-1.529 10.253-4.247s4.247-6.409 4.247-10.253c0-3.844-1.529-7.535-4.247-10.253S7598.844 94.5 7595 94.5zm112 0c-3.844 0-7.535 1.529-10.253 4.247s-4.247 6.409-4.247 10.253c0 3.844 1.529 7.535 4.247 10.253s6.409 4.247 10.253 4.247c3.844 0 7.535-1.529 10.253-4.247s4.247-6.409 4.247-10.253c0-3.844-1.529-7.535-4.247-10.253S7710.844 94.5 7707 94.5z" fill="#000000"/><path d="M7589.5 193.513c1.73-.623 16.8-5.828 49-6.869 28.55-.922 58.68 1.813 74 6.869" fill="none"/></g><g stroke="#000000" stroke-width="11" stroke-linecap="round" stroke-miterlimit="10"><path d="M7950 44.5c-27.97 0-54.822 11.123-74.6 30.9-19.777 19.778-30.9 46.63-30.9 74.6 0 27.97 11.123 54.822 30.9 74.6 19.778 19.777 46.63 30.9 74.6 30.9 27.97 0 54.822-11.123 74.6-30.9 19.777-19.778 30.9-46.63 30.9-74.6 0-27.97-11.123-54.822-30.9-74.6-19.778-19.777-46.63-30.9-74.6-30.9z" fill="none"/><path d="M7895 94.5c-3.844 0-7.535 1.529-10.253 4.247s-4.247 6.409-4.247 10.253c0 3.844 1.529 7.535 4.247 10.253s6.409 4.247 10.253 4.247c3.844 0 7.535-1.529 10.253-4.247s4.247-6.409 4.247-10.253c0-3.844-1.529-7.535-4.247-10.253S7898.844 94.5 7895 94.5zm112 0c-3.844 0-7.535 1.529-10.253 4.247s-4.247 6.409-4.247 10.253c0 3.844 1.529 7.535 4.247 10.253s6.409 4.247 10.253 4.247c3.844 0 7.535-1.529 10.253-4.247s4.247-6.409 4.247-10.253c0-3.844-1.529-7.535-4.247-10.253S8010.844 94.5 8007 94.5z" fill="#000000"/><path d="M7889.5 197.6c1.73-1.347 16.8-12.588 49-14.838 28.55-1.991 58.68 3.917 74 14.838" fill="none"/></g><g stroke="#000000" stroke-width="11" stroke-linecap="round" stroke-miterlimit="10"><path d="M8250 44.5c-27.97 0-54.822 11.123-74.6 30.9-19.777 19.778-30.9 46.63-30.9 74.6 0 27.97 11.123 54.822 30.9 74.6 19.778 19.777 46.63 30.9 74.6 30.9 27.97 0 54.822-11.123 74.6-30.9 19.777-19.778 30.9-46.63 30.9-74.6 0-27.97-11.123-54.822-30.9-74.6-19.778-19.777-46.63-30.9-74.6-30.9z" fill="none"/><path d="M8195 94.5c-3.844 0-7.535 1.529-10.253 4.247s-4.247 6.409-4.247 10.253c0 3.844 1.529 7.535 4.247 10.253s6.409 4.247 10.253 4.247c3.844 0 7.535-1.529 10.253-4.247s4.247-6.409 4.247-10.253c0-3.844-1.529-7.535-4.247-10.253S8198.844 94.5 8195 94.5zm112 0c-3.844 0-7.535 1.529-10.253 4.247s-4.247 6.409-4.247 10.253c0 3.844 1.529 7.535 4.247 10.253s6.409 4.247 10.253 4.247c3.844 0 7.535-1.529 10.253-4.247s4.247-6.409 4.247-10.253c0-3.844-1.529-7.535-4.247-10.253S8310.844 94.5 8307 94.5z" fill="#000000"/><path d="M8189.5 200.731c1.73-1.901 16.8-17.768 49-20.942 28.55-2.811 58.68 5.527 74 20.942" fill="none"/></g><g stroke="#000000" stroke-width="11" stroke-linecap="round" stroke-miterlimit="10"><path d="M8550 44.5c-27.97 0-54.822 11.123-74.6 30.9-19.777 19.778-30.9 46.63-30.9 74.6 0 27.97 11.123 54.822 30.9 74.6 19.778 19.777 46.63 30.9 74.6 30.9 27.97 0 54.822-11.123 74.6-30.9 19.777-19.778 30.9-46.63 30.9-74.6 0-27.97-11.123-54.822-30.9-74.6-19.778-19.777-46.63-30.9-74.6-30.9z" fill="none"/><path d="M8495 94.5c-3.844 0-7.535 1.529-10.253 4.247s-4.247 6.409-4.247 10.253c0 3.844 1.529 7.535 4.247 10.253s6.409 4.247 10.253 4.247c3.844 0 7.535-1.529 10.253-4.247s4.247-6.409 4.247-10.253c0-3.844-1.529-7.535-4.247-10.253S8498.844 94.5 8495 94.5zm112 0c-3.844 0-7.535 1.529-10.253 4.247s-4.247 6.409-4.247 10.253c0 3.844 1.529 7.535 4.247 10.253s6.409 4.247 10.253 4.247c3.844 0 7.535-1.529 10.253-4.247s4.247-6.409 4.247-10.253c0-3.844-1.529-7.535-4.247-10.253S8610.844 94.5 8607 94.5z" fill="#000000"/><path d="M8489.5 203.131c1.73-2.326 16.8-21.738 49-25.622 28.55-3.438 58.68 6.763 74 25.622" fill="none"/></g><g stroke="#000000" stroke-width="11" stroke-linecap="round" stroke-miterlimit="10"><path d="M8850 44.5c-27.97 0-54.822 11.123-74.6 30.9-19.777 19.778-30.9 46.63-30.9 74.6 0 27.97 11.123 54.822 30.9 74.6 19.778 19.777 46.63 30.9 74.6 30.9 27.97 0 54.822-11.123 74.6-30.9 19.777-19.778 30.9-46.63 30.9-74.6 0-27.97-11.123-54.822-30.9-74.6-19.778-19.777-46.63-30.9-74.6-30.9z" fill="none"/><path d="M8795 94.5c-3.844 0-7.535 1.529-10.253 4.247s-4.247 6.409-4.247 10.253c0 3.844 1.529 7.535 4.247 10.253s6.409 4.247 10.253 4.247c3.844 0 7.535-1.529 10.253-4.247s4.247-6.409 4.247-10.253c0-3.844-1.529-7.535-4.247-10.253S8798.844 94.5 8795 94.5zm112 0c-3.844 0-7.535 1.529-10.253 4.247s-4.247 6.409-4.247 10.253c0 3.844 1.529 7.535 4.247 10.253s6.409 4.247 10.253 4.247c3.844 0 7.535-1.529 10.253-4.247s4.247-6.409 4.247-10.253c0-3.844-1.529-7.535-4.247-10.253S8910.844 94.5 8907 94.5z" fill="#000000"/><path d="M8789.5 204.976c1.73-2.652 16.8-24.79 49-29.219 28.55-3.921 58.68 7.712 74 29.219" fill="none"/></g><g stroke="#000000" stroke-width="11" stroke-linecap="round" stroke-miterlimit="10"><path d="M9150 44.5c-27.97 0-54.822 11.123-74.6 30.9-19.777 19.778-30.9 46.63-30.9 74.6 0 27.97 11.123 54.822 30.9 74.6 19.778 19.777 46.63 30.9 74.6 30.9 27.97 0 54.822-11.123 74.6-30.9 19.777-19.778 30.9-46.63 30.9-74.6 0-27.97-11.123-54.822-30.9-74.6-19.778-19.777-46.63-30.9-74.6-30.9z" fill="none"/><path d="M9095 94.5c-3.844 0-7.535 1.529-10.253 4.247s-4.247 6.409-4.247 10.253c0 3.844 1.529 7.535 4.247 10.253s6.409 4.247 10.253 4.247c3.844 0 7.535-1.529 10.253-4.247s4.247-6.409 4.247-10.253c0-3.844-1.529-7.535-4.247-10.253S9098.844 94.5 9095 94.5zm112 0c-3.844 0-7.535 1.529-10.253 4.247s-4.247 6.409-4.247 10.253c0 3.844 1.529 7.535 4.247 10.253s6.409 4.247 10.253 4.247c3.844 0 7.535-1.529 10.253-4.247s4.247-6.409 4.247-10.253c0-3.844-1.529-7.535-4.247-10.253S9210.844 94.5 9207 94.5z" fill="#000000"/><path d="M9089.5 206.392c1.73-2.904 16.8-27.132 49-31.979 28.55-4.292 58.68 8.441 74 31.979" fill="none"/></g><g stroke="#000000" stroke-width="11" stroke-linecap="round" stroke-miterlimit="10"><path d="M9450 44.5c-27.97 0-54.822 11.123-74.6 30.9-19.777 19.778-30.9 46.63-30.9 74.6 0 27.97 11.123 54.822 30.9 74.6 19.778 19.777 46.63 30.9 74.6 30.9 27.97 0 54.822-11.123 74.6-30.9 19.777-19.778 30.9-46.63 30.9-74.6 0-27.97-11.123-54.822-30.9-74.6-19.778-19.777-46.63-30.9-74.6-30.9z" fill="none"/><path d="M9395 94.5c-3.844 0-7.535 1.529-10.253 4.247s-4.247 6.409-4.247 10.253c0 3.844 1.529 7.535 4.247 10.253s6.409 4.247 10.253 4.247c3.844 0 7.535-1.529 10.253-4.247s4.247-6.409 4.247-10.253c0-3.844-1.529-7.535-4.247-10.253S9398.844 94.5 9395 94.5zm112 0c-3.844 0-7.535 1.529-10.253 4.247s-4.247 6.409-4.247 10.253c0 3.844 1.529 7.535 4.247 10.253s6.409 4.247 10.253 4.247c3.844 0 7.535-1.529 10.253-4.247s4.247-6.409 4.247-10.253c0-3.844-1.529-7.535-4.247-10.253S9510.844 94.5 9507 94.5z" fill="#000000"/><path d="M9389.5 207.466c1.73-3.093 16.8-28.909 49-34.073 28.55-4.573 58.68 8.993 74 34.073" fill="none"/></g><g stroke="#000000" stroke-width="11" stroke-linecap="round" stroke-miterlimit="10"><path d="M9750 44.5c-27.97 0-54.822 11.123-74.6 30.9-19.777 19.778-30.9 46.63-30.9 74.6 0 27.97 11.123 54.822 30.9 74.6 19.778 19.777 46.63 30.9 74.6 30.9 27.97 0 54.822-11.123 74.6-30.9 19.777-19.778 30.9-46.63 30.9-74.6 0-27.97-11.123-54.822-30.9-74.6-19.778-19.777-46.63-30.9-74.6-30.9z" fill="none"/><path d="M9695 94.5c-3.844 0-7.535 1.529-10.253 4.247s-4.247 6.409-4.247 10.253c0 3.844 1.529 7.535 4.247 10.253s6.409 4.247 10.253 4.247c3.844 0 7.535-1.529 10.253-4.247s4.247-6.409 4.247-10.253c0-3.844-1.529-7.535-4.247-10.253S9698.844 94.5 9695 94.5zm112 0c-3.844 0-7.535 1.529-10.253 4.247s-4.247 6.409-4.247 10.253c0 3.844 1.529 7.535 4.247 10.253s6.409 4.247 10.253 4.247c3.844 0 7.535-1.529 10.253-4.247s4.247-6.409 4.247-10.253c0-3.844-1.529-7.535-4.247-10.253S9810.844 94.5 9807 94.5z" fill="#000000"/><path d="M9689.5 208.263c1.73-3.234 16.8-30.227 49-35.628 28.55-4.781 58.68 9.404 74 35.628" fill="none"/></g><g stroke="#000000" stroke-width="11" stroke-linecap="round" stroke-miterlimit="10"><path d="M10050 44.5c-27.97 0-54.822 11.123-74.6 30.9-19.777 19.778-30.9 46.63-30.9 74.6 0 27.97 11.123 54.822 30.9 74.6 19.778 19.777 46.63 30.9 74.6 30.9 27.97 0 54.822-11.123 74.6-30.9 19.777-19.778 30.9-46.63 30.9-74.6 0-27.97-11.123-54.822-30.9-74.6-19.778-19.777-46.63-30.9-74.6-30.9z" fill="none"/><path d="M9995 94.5c-3.844 0-7.535 1.529-10.253 4.247s-4.247 6.409-4.247 10.253c0 3.844 1.529 7.535 4.247 10.253s6.409 4.247 10.253 4.247c3.844 0 7.535-1.529 10.253-4.247s4.247-6.409 4.247-10.253c0-3.844-1.529-7.535-4.247-10.253S9998.844 94.5 9995 94.5zm112 0c-3.844 0-7.535 1.529-10.253 4.247s-4.247 6.409-4.247 10.253c0 3.844 1.529 7.535 4.247 10.253s6.409 4.247 10.253 4.247c3.844 0 7.535-1.529 10.253-4.247s4.247-6.409 4.247-10.253c0-3.844-1.529-7.535-4.247-10.253s-6.409-4.247-10.253-4.247z" fill="#000000"/><path d="M9989.5 208.831c1.73-3.335 16.8-31.167 49-36.735 28.55-4.93 58.68 9.696 74 36.735" fill="none"/></g><g stroke="#000000" stroke-width="11" stroke-linecap="round" stroke-miterlimit="10"><path d="M10350 44.5c-27.97 0-54.822 11.123-74.6 30.9-19.777 19.778-30.9 46.63-30.9 74.6 0 27.97 11.123 54.822 30.9 74.6 19.778 19.777 46.63 30.9 74.6 30.9 27.97 0 54.822-11.123 74.6-30.9 19.777-19.778 30.9-46.63 30.9-74.6 0-27.97-11.123-54.822-30.9-74.6-19.778-19.777-46.63-30.9-74.6-30.9z" fill="none"/><path d="M10295 94.5c-3.844 0-7.535 1.529-10.253 4.247s-4.247 6.409-4.247 10.253c0 3.844 1.529 7.535 4.247 10.253s6.409 4.247 10.253 4.247c3.844 0 7.535-1.529 10.253-4.247s4.247-6.409 4.247-10.253c0-3.844-1.529-7.535-4.247-10.253s-6.409-4.247-10.253-4.247zm112 0c-3.844 0-7.535 1.529-10.253 4.247s-4.247 6.409-4.247 10.253c0 3.844 1.529 7.535 4.247 10.253s6.409 4.247 10.253 4.247c3.844 0 7.535-1.529 10.253-4.247s4.247-6.409 4.247-10.253c0-3.844-1.529-7.535-4.247-10.253s-6.409-4.247-10.253-4.247z" fill="#000000"/><path d="M10289.5 209.206c1.73-3.402 16.8-31.787 49-37.465 28.55-5.029 58.68 9.888 74 37.465" fill="none"/></g><g stroke="#000000" stroke-width="11" stroke-linecap="round" stroke-miterlimit="10"><path d="M10650 44.5c-27.97 0-54.822 11.123-74.6 30.9-19.777 19.778-30.9 46.63-30.9 74.6 0 27.97 11.123 54.822 30.9 74.6 19.778 19.777 46.63 30.9 74.6 30.9 27.97 0 54.822-11.123 74.6-30.9 19.777-19.778 30.9-46.63 30.9-74.6 0-27.97-11.123-54.822-30.9-74.6-19.778-19.777-46.63-30.9-74.6-30.9z" fill="none"/><path d="M10595 94.5c-3.844 0-7.535 1.529-10.253 4.247s-4.247 6.409-4.247 10.253c0 3.844 1.529 7.535 4.247 10.253s6.409 4.247 10.253 4.247c3.844 0 7.535-1.529 10.253-4.247s4.247-6.409 4.247-10.253c0-3.844-1.529-7.535-4.247-10.253s-6.409-4.247-10.253-4.247zm112 0c-3.844 0-7.535 1.529-10.253 4.247s-4.247 6.409-4.247 10.253c0 3.844 1.529 7.535 4.247 10.253s6.409 4.247 10.253 4.247c3.844 0 7.535-1.529 10.253-4.247s4.247-6.409 4.247-10.253c0-3.844-1.529-7.535-4.247-10.253s-6.409-4.247-10.253-4.247z" fill="#000000"/><path d="M10589.5 209.415c1.73-3.439 16.8-32.132 49-37.873 28.55-5.083 58.68 9.996 74 37.873" fill="none"/></g><g stroke="#000000" stroke-width="11" stroke-linecap="round" stroke-miterlimit="10"><path d="M10950 44.5c-27.97 0-54.822 11.123-74.6 30.9-19.777 19.778-30.9 46.63-30.9 74.6 0 27.97 11.123 54.822 30.9 74.6 19.778 19.777 46.63 30.9 74.6 30.9 27.97 0 54.822-11.123 74.6-30.9 19.777-19.778 30.9-46.63 30.9-74.6 0-27.97-11.123-54.822-30.9-74.6-19.778-19.777-46.63-30.9-74.6-30.9z" fill="none"/><path d="M10895 94.5c-3.844 0-7.535 1.529-10.253 4.247s-4.247 6.409-4.247 10.253c0 3.844 1.529 7.535 4.247 10.253s6.409 4.247 10.253 4.247c3.844 0 7.535-1.529 10.253-4.247s4.247-6.409 4.247-10.253c0-3.844-1.529-7.535-4.247-10.253s-6.409-4.247-10.253-4.247zm112 0c-3.844 0-7.535 1.529-10.253 4.247s-4.247 6.409-4.247 10.253c0 3.844 1.529 7.535 4.247 10.253s6.409 4.247 10.253 4.247c3.844 0 7.535-1.529 10.253-4.247s4.247-6.409 4.247-10.253c0-3.844-1.529-7.535-4.247-10.253s-6.409-4.247-10.253-4.247z" fill="#000000"/><path d="M10889.5 209.48c1.73-3.45 16.8-32.24 49-38 28.55-5.1 58.68 10.03 74 38" fill="none"/></g><g stroke="#000000" stroke-width="11" stroke-linecap="round" stroke-miterlimit="10"><path d="M11250 44.5c-27.97 0-54.822 11.123-74.6 30.9-19.777 19.778-30.9 46.63-30.9 74.6 0 27.97 11.123 54.822 30.9 74.6 19.778 19.777 46.63 30.9 74.6 30.9 27.97 0 54.822-11.123 74.6-30.9 19.777-19.778 30.9-46.63 30.9-74.6 0-27.97-11.123-54.822-30.9-74.6-19.778-19.777-46.63-30.9-74.6-30.9z" fill="none"/><path d="M11195 94.5c-3.844 0-7.535 1.529-10.253 4.247s-4.247 6.409-4.247 10.253c0 3.844 1.529 7.535 4.247 10.253s6.409 4.247 10.253 4.247c3.844 0 7.535-1.529 10.253-4.247s4.247-6.409 4.247-10.253c0-3.844-1.529-7.535-4.247-10.253s-6.409-4.247-10.253-4.247zm112 0c-3.844 0-7.535 1.529-10.253 4.247s-4.247 6.409-4.247 10.253c0 3.844 1.529 7.535 4.247 10.253s6.409 4.247 10.253 4.247c3.844 0 7.535-1.529 10.253-4.247s4.247-6.409 4.247-10.253c0-3.844-1.529-7.535-4.247-10.253s-6.409-4.247-10.253-4.247z" fill="#000000"/><path d="M11189.5 209.48c1.73-3.45 16.8-32.24 49-38 28.55-5.1 58.68 10.03 74 38" fill="none"/></g><g stroke="#000000" stroke-width="11" stroke-linecap="round" stroke-miterlimit="10"><path d="M11550 44.5c-27.97 0-54.822 11.123-74.6 30.9-19.777 19.778-30.9 46.63-30.9 74.6 0 27.97 11.123 54.822 30.9 74.6 19.778 19.777 46.63 30.9 74.6 30.9 27.97 0 54.822-11.123 74.6-30.9 19.777-19.778 30.9-46.63 30.9-74.6 0-27.97-11.123-54.822-30.9-74.6-19.778-19.777-46.63-30.9-74.6-30.9z" fill="none"/><path d="M11495 94.5c-3.844 0-7.535 1.529-10.253 4.247s-4.247 6.409-4.247 10.253c0 3.844 1.529 7.535 4.247 10.253s6.409 4.247 10.253 4.247c3.844 0 7.535-1.529 10.253-4.247s4.247-6.409 4.247-10.253c0-3.844-1.529-7.535-4.247-10.253s-6.409-4.247-10.253-4.247zm112 0c-3.844 0-7.535 1.529-10.253 4.247s-4.247 6.409-4.247 10.253c0 3.844 1.529 7.535 4.247 10.253s6.409 4.247 10.253 4.247c3.844 0 7.535-1.529 10.253-4.247s4.247-6.409 4.247-10.253c0-3.844-1.529-7.535-4.247-10.253s-6.409-4.247-10.253-4.247z" fill="#000000"/><path d="M11489.5 209.48c1.73-3.45 16.8-32.24 49-38 28.55-5.1 58.68 10.03 74 38" fill="none"/></g><g stroke="#000000" stroke-width="11" stroke-linecap="round" stroke-miterlimit="10"><path d="M11850 44.5c-27.97 0-54.822 11.123-74.6 30.9-19.777 19.778-30.9 46.63-30.9 74.6 0 27.97 11.123 54.822 30.9 74.6 19.778 19.777 46.63 30.9 74.6 30.9 27.97 0 54.822-11.123 74.6-30.9 19.777-19.778 30.9-46.63 30.9-74.6 0-27.97-11.123-54.822-30.9-74.6-19.778-19.777-46.63-30.9-74.6-30.9z" fill="none"/><path d="M11795 94.5c-3.844 0-7.535 1.529-10.253 4.247s-4.247 6.409-4.247 10.253c0 3.844 1.529 7.535 4.247 10.253s6.409 4.247 10.253 4.247c3.844 0 7.535-1.529 10.253-4.247s4.247-6.409 4.247-10.253c0-3.844-1.529-7.535-4.247-10.253s-6.409-4.247-10.253-4.247zm112 0c-3.844 0-7.535 1.529-10.253 4.247s-4.247 6.409-4.247 10.253c0 3.844 1.529 7.535 4.247 10.253s6.409 4.247 10.253 4.247c3.844 0 7.535-1.529 10.253-4.247s4.247-6.409 4.247-10.253c0-3.844-1.529-7.535-4.247-10.253s-6.409-4.247-10.253-4.247z" fill="#000000"/><path d="M11789.5 209.48c1.73-3.45 16.8-32.24 49-38 28.55-5.1 58.68 10.03 74 38" fill="none"/></g><g stroke="#000000" stroke-width="11" stroke-linecap="round" stroke-miterlimit="10"><path d="M12150 44.5c-27.97 0-54.822 11.123-74.6 30.9-19.777 19.778-30.9 46.63-30.9 74.6 0 27.97 11.123 54.822 30.9 74.6 19.778 19.777 46.63 30.9 74.6 30.9 27.97 0 54.822-11.123 74.6-30.9 19.777-19.778 30.9-46.63 30.9-74.6 0-27.97-11.123-54.822-30.9-74.6-19.778-19.777-46.63-30.9-74.6-30.9z" fill="none"/><path d="M12095 94.5c-3.844 0-7.535 1.529-10.253 4.247s-4.247 6.409-4.247 10.253c0 3.844 1.529 7.535 4.247 10.253s6.409 4.247 10.253 4.247c3.844 0 7.535-1.529 10.253-4.247s4.247-6.409 4.247-10.253c0-3.844-1.529-7.535-4.247-10.253s-6.409-4.247-10.253-4.247zm112 0c-3.844 0-7.535 1.529-10.253 4.247s-4.247 6.409-4.247 10.253c0 3.844 1.529 7.535 4.247 10.253s6.409 4.247 10.253 4.247c3.844 0 7.535-1.529 10.253-4.247s4.247-6.409 4.247-10.253c0-3.844-1.529-7.535-4.247-10.253s-6.409-4.247-10.253-4.247z" fill="#000000"/><path d="M12089.5 209.48c1.73-3.45 16.8-32.24 49-38 28.55-5.1 58.68 10.03 74 38" fill="none"/></g><g stroke="#000000" stroke-width="11" stroke-linecap="round" stroke-miterlimit="10"><path d="M12450 44.5c-27.97 0-54.822 11.123-74.6 30.9-19.777 19.778-30.9 46.63-30.9 74.6 0 27.97 11.123 54.822 30.9 74.6 19.778 19.777 46.63 30.9 74.6 30.9 27.97 0 54.822-11.123 74.6-30.9 19.777-19.778 30.9-46.63 30.9-74.6 0-27.97-11.123-54.822-30.9-74.6-19.778-19.777-46.63-30.9-74.6-30.9z" fill="none"/><path d="M12395 94.5c-3.844 0-7.535 1.529-10.253 4.247s-4.247 6.409-4.247 10.253c0 3.844 1.529 7.535 4.247 10.253s6.409 4.247 10.253 4.247c3.844 0 7.535-1.529 10.253-4.247s4.247-6.409 4.247-10.253c0-3.844-1.529-7.535-4.247-10.253s-6.409-4.247-10.253-4.247zm112 0c-3.844 0-7.535 1.529-10.253 4.247s-4.247 6.409-4.247 10.253c0 3.844 1.529 7.535 4.247 10.253s6.409 4.247 10.253 4.247c3.844 0 7.535-1.529 10.253-4.247s4.247-6.409 4.247-10.253c0-3.844-1.529-7.535-4.247-10.253s-6.409-4.247-10.253-4.247z" fill="#000000"/><path d="M12389.5 209.48c1.73-3.45 16.8-32.24 49-38 28.55-5.1 58.68 10.03 74 38" fill="none"/></g><g stroke="#000000" stroke-width="11" stroke-linecap="round" stroke-miterlimit="10"><path d="M12750 44.5c-27.97 0-54.822 11.123-74.6 30.9-19.777 19.778-30.9 46.63-30.9 74.6 0 27.97 11.123 54.822 30.9 74.6 19.778 19.777 46.63 30.9 74.6 30.9 27.97 0 54.822-11.123 74.6-30.9 19.777-19.778 30.9-46.63 30.9-74.6 0-27.97-11.123-54.822-30.9-74.6-19.778-19.777-46.63-30.9-74.6-30.9z" fill="none"/><path d="M12695 94.5c-3.844 0-7.535 1.529-10.253 4.247s-4.247 6.409-4.247 10.253c0 3.844 1.529 7.535 4.247 10.253s6.409 4.247 10.253 4.247c3.844 0 7.535-1.529 10.253-4.247s4.247-6.409 4.247-10.253c0-3.844-1.529-7.535-4.247-10.253s-6.409-4.247-10.253-4.247zm112 0c-3.844 0-7.535 1.529-10.253 4.247s-4.247 6.409-4.247 10.253c0 3.844 1.529 7.535 4.247 10.253s6.409 4.247 10.253 4.247c3.844 0 7.535-1.529 10.253-4.247s4.247-6.409 4.247-10.253c0-3.844-1.529-7.535-4.247-10.253s-6.409-4.247-10.253-4.247z" fill="#000000"/><path d="M12689.5 209.48c1.73-3.45 16.8-32.24 49-38 28.55-5.1 58.68 10.03 74 38" fill="none"/></g><g stroke="#000000" stroke-width="11" stroke-linecap="round" stroke-miterlimit="10"><path d="M13050 44.5c-27.97 0-54.822 11.123-74.6 30.9-19.777 19.778-30.9 46.63-30.9 74.6 0 27.97 11.123 54.822 30.9 74.6 19.778 19.777 46.63 30.9 74.6 30.9 27.97 0 54.822-11.123 74.6-30.9 19.777-19.778 30.9-46.63 30.9-74.6 0-27.97-11.123-54.822-30.9-74.6-19.778-19.777-46.63-30.9-74.6-30.9z" fill="none"/><path d="M12995 94.5c-3.844 0-7.535 1.529-10.253 4.247s-4.247 6.409-4.247 10.253c0 3.844 1.529 7.535 4.247 10.253s6.409 4.247 10.253 4.247c3.844 0 7.535-1.529 10.253-4.247s4.247-6.409 4.247-10.253c0-3.844-1.529-7.535-4.247-10.253s-6.409-4.247-10.253-4.247zm112 0c-3.844 0-7.535 1.529-10.253 4.247s-4.247 6.409-4.247 10.253c0 3.844 1.529 7.535 4.247 10.253s6.409 4.247 10.253 4.247c3.844 0 7.535-1.529 10.253-4.247s4.247-6.409 4.247-10.253c0-3.844-1.529-7.535-4.247-10.253s-6.409-4.247-10.253-4.247z" fill="#000000"/><path d="M12989.5 209.48c1.73-3.45 16.8-32.24 49-38 28.55-5.1 58.68 10.03 74 38" fill="none"/></g><g stroke="#000000" stroke-width="11" stroke-linecap="round" stroke-miterlimit="10"><path d="M13350 44.5c-27.97 0-54.822 11.123-74.6 30.9-19.777 19.778-30.9 46.63-30.9 74.6 0 27.97 11.123 54.822 30.9 74.6 19.778 19.777 46.63 30.9 74.6 30.9 27.97 0 54.822-11.123 74.6-30.9 19.777-19.778 30.9-46.63 30.9-74.6 0-27.97-11.123-54.822-30.9-74.6-19.778-19.777-46.63-30.9-74.6-30.9z" fill="none"/><path d="M13295 94.5c-3.844 0-7.535 1.529-10.253 4.247s-4.247 6.409-4.247 10.253c0 3.844 1.529 7.535 4.247 10.253s6.409 4.247 10.253 4.247c3.844 0 7.535-1.529 10.253-4.247s4.247-6.409 4.247-10.253c0-3.844-1.529-7.535-4.247-10.253s-6.409-4.247-10.253-4.247zm112 0c-3.844 0-7.535 1.529-10.253 4.247s-4.247 6.409-4.247 10.253c0 3.844 1.529 7.535 4.247 10.253s6.409 4.247 10.253 4.247c3.844 0 7.535-1.529 10.253-4.247s4.247-6.409 4.247-10.253c0-3.844-1.529-7.535-4.247-10.253s-6.409-4.247-10.253-4.247z" fill="#000000"/><path d="M13289.5 209.48c1.73-3.45 16.8-32.24 49-38 28.55-5.1 58.68 10.03 74 38" fill="none"/></g><g stroke="#000000" stroke-width="11" stroke-linecap="round" stroke-miterlimit="10"><path d="M13650 44.5c-27.97 0-54.822 11.123-74.6 30.9-19.777 19.778-30.9 46.63-30.9 74.6 0 27.97 11.123 54.822 30.9 74.6 19.778 19.777 46.63 30.9 74.6 30.9 27.97 0 54.822-11.123 74.6-30.9 19.777-19.778 30.9-46.63 30.9-74.6 0-27.97-11.123-54.822-30.9-74.6-19.778-19.777-46.63-30.9-74.6-30.9z" fill="none"/><path d="M13595 94.5c-3.844 0-7.535 1.529-10.253 4.247s-4.247 6.409-4.247 10.253c0 3.844 1.529 7.535 4.247 10.253s6.409 4.247 10.253 4.247c3.844 0 7.535-1.529 10.253-4.247s4.247-6.409 4.247-10.253c0-3.844-1.529-7.535-4.247-10.253s-6.409-4.247-10.253-4.247zm112 0c-3.844 0-7.535 1.529-10.253 4.247s-4.247 6.409-4.247 10.253c0 3.844 1.529 7.535 4.247 10.253s6.409 4.247 10.253 4.247c3.844 0 7.535-1.529 10.253-4.247s4.247-6.409 4.247-10.253c0-3.844-1.529-7.535-4.247-10.253s-6.409-4.247-10.253-4.247z" fill="#000000"/><path d="M13589.5 209.48c1.73-3.45 16.8-32.24 49-38 28.55-5.1 58.68 10.03 74 38" fill="none"/></g><g stroke="#000000" stroke-width="11" stroke-linecap="round" stroke-miterlimit="10"><path d="M13950 44.5c-27.97 0-54.822 11.123-74.6 30.9-19.777 19.778-30.9 46.63-30.9 74.6 0 27.97 11.123 54.822 30.9 74.6 19.778 19.777 46.63 30.9 74.6 30.9 27.97 0 54.822-11.123 74.6-30.9 19.777-19.778 30.9-46.63 30.9-74.6 0-27.97-11.123-54.822-30.9-74.6-19.778-19.777-46.63-30.9-74.6-30.9z" fill="none"/><path d="M13895 94.5c-3.844 0-7.535 1.529-10.253 4.247s-4.247 6.409-4.247 10.253c0 3.844 1.529 7.535 4.247 10.253s6.409 4.247 10.253 4.247c3.844 0 7.535-1.529 10.253-4.247s4.247-6.409 4.247-10.253c0-3.844-1.529-7.535-4.247-10.253s-6.409-4.247-10.253-4.247zm112 0c-3.844 0-7.535 1.529-10.253 4.247s-4.247 6.409-4.247 10.253c0 3.844 1.529 7.535 4.247 10.253s6.409 4.247 10.253 4.247c3.844 0 7.535-1.529 10.253-4.247s4.247-6.409 4.247-10.253c0-3.844-1.529-7.535-4.247-10.253s-6.409-4.247-10.253-4.247z" fill="#000000"/><path d="M13889.5 209.48c1.73-3.45 16.8-32.24 49-38 28.55-5.1 58.68 10.03 74 38" fill="none"/></g><g stroke="#000000" stroke-width="11" stroke-linecap="round" stroke-miterlimit="10"><path d="M14250 44.5c-27.97 0-54.822 11.123-74.6 30.9-19.777 19.778-30.9 46.63-30.9 74.6 0 27.97 11.123 54.822 30.9 74.6 19.778 19.777 46.63 30.9 74.6 30.9 27.97 0 54.822-11.123 74.6-30.9 19.777-19.778 30.9-46.63 30.9-74.6 0-27.97-11.123-54.822-30.9-74.6-19.778-19.777-46.63-30.9-74.6-30.9z" fill="none"/><path d="M14195 94.5c-3.844 0-7.535 1.529-10.253 4.247s-4.247 6.409-4.247 10.253c0 3.844 1.529 7.535 4.247 10.253s6.409 4.247 10.253 4.247c3.844 0 7.535-1.529 10.253-4.247s4.247-6.409 4.247-10.253c0-3.844-1.529-7.535-4.247-10.253s-6.409-4.247-10.253-4.247zm112 0c-3.844 0-7.535 1.529-10.253 4.247s-4.247 6.409-4.247 10.253c0 3.844 1.529 7.535 4.247 10.253s6.409 4.247 10.253 4.247c3.844 0 7.535-1.529 10.253-4.247s4.247-6.409 4.247-10.253c0-3.844-1.529-7.535-4.247-10.253s-6.409-4.247-10.253-4.247z" fill="#000000"/><path d="M14189.5 209.48c1.73-3.45 16.8-32.24 49-38 28.55-5.1 58.68 10.03 74 38" fill="none"/></g><g stroke="#000000" stroke-width="11" stroke-linecap="round" stroke-miterlimit="10"><path d="M14550 44.5c-27.97 0-54.822 11.123-74.6 30.9-19.777 19.778-30.9 46.63-30.9 74.6 0 27.97 11.123 54.822 30.9 74.6 19.778 19.777 46.63 30.9 74.6 30.9 27.97 0 54.822-11.123 74.6-30.9 19.777-19.778 30.9-46.63 30.9-74.6 0-27.97-11.123-54.822-30.9-74.6-19.778-19.777-46.63-30.9-74.6-30.9z" fill="none"/><path d="M14495 94.5c-3.844 0-7.535 1.529-10.253 4.247s-4.247 6.409-4.247 10.253c0 3.844 1.529 7.535 4.247 10.253s6.409 4.247 10.253 4.247c3.844 0 7.535-1.529 10.253-4.247s4.247-6.409 4.247-10.253c0-3.844-1.529-7.535-4.247-10.253s-6.409-4.247-10.253-4.247zm112 0c-3.844 0-7.535 1.529-10.253 4.247s-4.247 6.409-4.247 10.253c0 3.844 1.529 7.535 4.247 10.253s6.409 4.247 10.253 4.247c3.844 0 7.535-1.529 10.253-4.247s4.247-6.409 4.247-10.253c0-3.844-1.529-7.535-4.247-10.253s-6.409-4.247-10.253-4.247z" fill="#000000"/><path d="M14489.5 209.48c1.73-3.45 16.8-32.24 49-38 28.55-5.1 58.68 10.03 74 38" fill="none"/></g><g stroke="#000000" stroke-width="11" stroke-linecap="round" stroke-miterlimit="10"><path d="M14850 44.5c-27.97 0-54.822 11.123-74.6 30.9-19.777 19.778-30.9 46.63-30.9 74.6 0 27.97 11.123 54.822 30.9 74.6 19.778 19.777 46.63 30.9 74.6 30.9 27.97 0 54.822-11.123 74.6-30.9 19.777-19.778 30.9-46.63 30.9-74.6 0-27.97-11.123-54.822-30.9-74.6-19.778-19.777-46.63-30.9-74.6-30.9z" fill="none"/><path d="M14795 94.5c-3.844 0-7.535 1.529-10.253 4.247s-4.247 6.409-4.247 10.253c0 3.844 1.529 7.535 4.247 10.253s6.409 4.247 10.253 4.247c3.844 0 7.535-1.529 10.253-4.247s4.247-6.409 4.247-10.253c0-3.844-1.529-7.535-4.247-10.253s-6.409-4.247-10.253-4.247zm112 0c-3.844 0-7.535 1.529-10.253 4.247s-4.247 6.409-4.247 10.253c0 3.844 1.529 7.535 4.247 10.253s6.409 4.247 10.253 4.247c3.844 0 7.535-1.529 10.253-4.247s4.247-6.409 4.247-10.253c0-3.844-1.529-7.535-4.247-10.253s-6.409-4.247-10.253-4.247z" fill="#000000"/><path d="M14789.5 209.48c1.73-3.45 16.8-32.24 49-38 28.55-5.1 58.68 10.03 74 38" fill="none"/></g><g stroke="#000000" stroke-width="11" stroke-linecap="round" stroke-miterlimit="10"><path d="M15150 44.5c-27.97 0-54.822 11.123-74.6 30.9-19.777 19.778-30.9 46.63-30.9 74.6 0 27.97 11.123 54.822 30.9 74.6 19.778 19.777 46.63 30.9 74.6 30.9 27.97 0 54.822-11.123 74.6-30.9 19.777-19.778 30.9-46.63 30.9-74.6 0-27.97-11.123-54.822-30.9-74.6-19.778-19.777-46.63-30.9-74.6-30.9z" fill="none"/><path d="M15095 94.5c-3.844 0-7.535 1.529-10.253 4.247s-4.247 6.409-4.247 10.253c0 3.844 1.529 7.535 4.247 10.253s6.409 4.247 10.253 4.247c3.844 0 7.535-1.529 10.253-4.247s4.247-6.409 4.247-10.253c0-3.844-1.529-7.535-4.247-10.253s-6.409-4.247-10.253-4.247zm112 0c-3.844 0-7.535 1.529-10.253 4.247s-4.247 6.409-4.247 10.253c0 3.844 1.529 7.535 4.247 10.253s6.409 4.247 10.253 4.247c3.844 0 7.535-1.529 10.253-4.247s4.247-6.409 4.247-10.253c0-3.844-1.529-7.535-4.247-10.253s-6.409-4.247-10.253-4.247z" fill="#000000"/><path d="M15089.5 209.48c1.73-3.45 16.8-32.24 49-38 28.55-5.1 58.68 10.03 74 38" fill="none"/></g><g stroke="#000000" stroke-width="11" stroke-linecap="round" stroke-miterlimit="10"><path d="M15450 44.5c-27.97 0-54.822 11.123-74.6 30.9-19.777 19.778-30.9 46.63-30.9 74.6 0 27.97 11.123 54.822 30.9 74.6 19.778 19.777 46.63 30.9 74.6 30.9 27.97 0 54.822-11.123 74.6-30.9 19.777-19.778 30.9-46.63 30.9-74.6 0-27.97-11.123-54.822-30.9-74.6-19.778-19.777-46.63-30.9-74.6-30.9z" fill="none"/><path d="M15395 94.5c-3.844 0-7.535 1.529-10.253 4.247s-4.247 6.409-4.247 10.253c0 3.844 1.529 7.535 4.247 10.253s6.409 4.247 10.253 4.247c3.844 0 7.535-1.529 10.253-4.247s4.247-6.409 4.247-10.253c0-3.844-1.529-7.535-4.247-10.253s-6.409-4.247-10.253-4.247zm112 0c-3.844 0-7.535 1.529-10.253 4.247s-4.247 6.409-4.247 10.253c0 3.844 1.529 7.535 4.247 10.253s6.409 4.247 10.253 4.247c3.844 0 7.535-1.529 10.253-4.247s4.247-6.409 4.247-10.253c0-3.844-1.529-7.535-4.247-10.253s-6.409-4.247-10.253-4.247z" fill="#000000"/><path d="M15389.5 209.48c1.73-3.45 16.8-32.24 49-38 28.55-5.1 58.68 10.03 74 38" fill="none"/></g><g stroke="#000000" stroke-width="11" stroke-linecap="round" stroke-miterlimit="10"><path d="M15750 44.5c-27.97 0-54.822 11.123-74.6 30.9-19.777 19.778-30.9 46.63-30.9 74.6 0 27.97 11.123 54.822 30.9 74.6 19.778 19.777 46.63 30.9 74.6 30.9 27.97 0 54.822-11.123 74.6-30.9 19.777-19.778 30.9-46.63 30.9-74.6 0-27.97-11.123-54.822-30.9-74.6-19.778-19.777-46.63-30.9-74.6-30.9z" fill="none"/><path d="M15695 94.5c-3.844 0-7.535 1.529-10.253 4.247s-4.247 6.409-4.247 10.253c0 3.844 1.529 7.535 4.247 10.253s6.409 4.247 10.253 4.247c3.844 0 7.535-1.529 10.253-4.247s4.247-6.409 4.247-10.253c0-3.844-1.529-7.535-4.247-10.253s-6.409-4.247-10.253-4.247zm112 0c-3.844 0-7.535 1.529-10.253 4.247s-4.247 6.409-4.247 10.253c0 3.844 1.529 7.535 4.247 10.253s6.409 4.247 10.253 4.247c3.844 0 7.535-1.529 10.253-4.247s4.247-6.409 4.247-10.253c0-3.844-1.529-7.535-4.247-10.253s-6.409-4.247-10.253-4.247z" fill="#000000"/><path d="M15689.5 209.48c1.73-3.45 16.8-32.24 49-38 28.55-5.1 58.68 10.03 74 38" fill="none"/></g><g stroke="#000000" stroke-width="11" stroke-linecap="round" stroke-miterlimit="10"><path d="M16050 44.5c-27.97 0-54.822 11.123-74.6 30.9-19.777 19.778-30.9 46.63-30.9 74.6 0 27.97 11.123 54.822 30.9 74.6 19.778 19.777 46.63 30.9 74.6 30.9 27.97 0 54.822-11.123 74.6-30.9 19.777-19.778 30.9-46.63 30.9-74.6 0-27.97-11.123-54.822-30.9-74.6-19.778-19.777-46.63-30.9-74.6-30.9z" fill="none"/><path d="M15995 94.5c-3.844 0-7.535 1.529-10.253 4.247s-4.247 6.409-4.247 10.253c0 3.844 1.529 7.535 4.247 10.253s6.409 4.247 10.253 4.247c3.844 0 7.535-1.529 10.253-4.247s4.247-6.409 4.247-10.253c0-3.844-1.529-7.535-4.247-10.253s-6.409-4.247-10.253-4.247zm112 0c-3.844 0-7.535 1.529-10.253 4.247s-4.247 6.409-4.247 10.253c0 3.844 1.529 7.535 4.247 10.253s6.409 4.247 10.253 4.247c3.844 0 7.535-1.529 10.253-4.247s4.247-6.409 4.247-10.253c0-3.844-1.529-7.535-4.247-10.253s-6.409-4.247-10.253-4.247z" fill="#000000"/><path d="M15989.5 209.48c1.73-3.45 16.8-32.24 49-38 28.55-5.1 58.68 10.03 74 38" fill="none"/></g><g stroke="#000000" stroke-width="11" stroke-linecap="round" stroke-miterlimit="10"><path d="M16350 44.5c-27.97 0-54.822 11.123-74.6 30.9-19.777 19.778-30.9 46.63-30.9 74.6 0 27.97 11.123 54.822 30.9 74.6 19.778 19.777 46.63 30.9 74.6 30.9 27.97 0 54.822-11.123 74.6-30.9 19.777-19.778 30.9-46.63 30.9-74.6 0-27.97-11.123-54.822-30.9-74.6-19.778-19.777-46.63-30.9-74.6-30.9z" fill="none"/><path d="M16295 94.5c-3.844 0-7.535 1.529-10.253 4.247s-4.247 6.409-4.247 10.253c0 3.844 1.529 7.535 4.247 10.253s6.409 4.247 10.253 4.247c3.844 0 7.535-1.529 10.253-4.247s4.247-6.409 4.247-10.253c0-3.844-1.529-7.535-4.247-10.253s-6.409-4.247-10.253-4.247zm112 0c-3.844 0-7.535 1.529-10.253 4.247s-4.247 6.409-4.247 10.253c0 3.844 1.529 7.535 4.247 10.253s6.409 4.247 10.253 4.247c3.844 0 7.535-1.529 10.253-4.247s4.247-6.409 4.247-10.253c0-3.844-1.529-7.535-4.247-10.253s-6.409-4.247-10.253-4.247z" fill="#000000"/><path d="M16289.5 209.48c1.73-3.45 16.8-32.24 49-38 28.55-5.1 58.68 10.03 74 38" fill="none"/></g><g stroke="#000000" stroke-width="11" stroke-linecap="round" stroke-miterlimit="10"><path d="M16650 44.5c-27.97 0-54.822 11.123-74.6 30.9-19.777 19.778-30.9 46.63-30.9 74.6 0 27.97 11.123 54.822 30.9 74.6 19.778 19.777 46.63 30.9 74.6 30.9 27.97 0 54.822-11.123 74.6-30.9 19.777-19.778 30.9-46.63 30.9-74.6 0-27.97-11.123-54.822-30.9-74.6-19.778-19.777-46.63-30.9-74.6-30.9z" fill="none"/><path d="M16595 94.5c-3.844 0-7.535 1.529-10.253 4.247s-4.247 6.409-4.247 10.253c0 3.844 1.529 7.535 4.247 10.253s6.409 4.247 10.253 4.247c3.844 0 7.535-1.529 10.253-4.247s4.247-6.409 4.247-10.253c0-3.844-1.529-7.535-4.247-10.253s-6.409-4.247-10.253-4.247zm112 0c-3.844 0-7.535 1.529-10.253 4.247s-4.247 6.409-4.247 10.253c0 3.844 1.529 7.535 4.247 10.253s6.409 4.247 10.253 4.247c3.844 0 7.535-1.529 10.253-4.247s4.247-6.409 4.247-10.253c0-3.844-1.529-7.535-4.247-10.253s-6.409-4.247-10.253-4.247z" fill="#000000"/><path d="M16589.5 209.48c1.73-3.45 16.8-32.24 49-38 28.55-5.1 58.68 10.03 74 38" fill="none"/></g><g stroke="#000000" stroke-width="11" stroke-linecap="round" stroke-miterlimit="10"><path d="M16950 44.5c-27.97 0-54.822 11.123-74.6 30.9-19.777 19.778-30.9 46.63-30.9 74.6 0 27.97 11.123 54.822 30.9 74.6 19.778 19.777 46.63 30.9 74.6 30.9 27.97 0 54.822-11.123 74.6-30.9 19.777-19.778 30.9-46.63 30.9-74.6 0-27.97-11.123-54.822-30.9-74.6-19.778-19.777-46.63-30.9-74.6-30.9z" fill="none"/><path d="M16895 94.5c-3.844 0-7.535 1.529-10.253 4.247s-4.247 6.409-4.247 10.253c0 3.844 1.529 7.535 4.247 10.253s6.409 4.247 10.253 4.247c3.844 0 7.535-1.529 10.253-4.247s4.247-6.409 4.247-10.253c0-3.844-1.529-7.535-4.247-10.253s-6.409-4.247-10.253-4.247zm112 0c-3.844 0-7.535 1.529-10.253 4.247s-4.247 6.409-4.247 10.253c0 3.844 1.529 7.535 4.247 10.253s6.409 4.247 10.253 4.247c3.844 0 7.535-1.529 10.253-4.247s4.247-6.409 4.247-10.253c0-3.844-1.529-7.535-4.247-10.253s-6.409-4.247-10.253-4.247z" fill="#000000"/><path d="M16889.5 209.48c1.73-3.45 16.8-32.24 49-38 28.55-5.1 58.68 10.03 74 38" fill="none"/></g><g stroke="#000000" stroke-width="11" stroke-linecap="round" stroke-miterlimit="10"><path d="M17250 44.5c-27.97 0-54.822 11.123-74.6 30.9-19.777 19.778-30.9 46.63-30.9 74.6 0 27.97 11.123 54.822 30.9 74.6 19.778 19.777 46.63 30.9 74.6 30.9 27.97 0 54.822-11.123 74.6-30.9 19.777-19.778 30.9-46.63 30.9-74.6 0-27.97-11.123-54.822-30.9-74.6-19.778-19.777-46.63-30.9-74.6-30.9z" fill="none"/><path d="M17195 94.5c-3.844 0-7.535 1.529-10.253 4.247s-4.247 6.409-4.247 10.253c0 3.844 1.529 7.535 4.247 10.253s6.409 4.247 10.253 4.247c3.844 0 7.535-1.529 10.253-4.247s4.247-6.409 4.247-10.253c0-3.844-1.529-7.535-4.247-10.253s-6.409-4.247-10.253-4.247zm112 0c-3.844 0-7.535 1.529-10.253 4.247s-4.247 6.409-4.247 10.253c0 3.844 1.529 7.535 4.247 10.253s6.409 4.247 10.253 4.247c3.844 0 7.535-1.529 10.253-4.247s4.247-6.409 4.247-10.253c0-3.844-1.529-7.535-4.247-10.253s-6.409-4.247-10.253-4.247z" fill="#000000"/><path d="M17189.5 209.48c1.73-3.45 16.8-32.24 49-38 28.55-5.1 58.68 10.03 74 38" fill="none"/></g><g stroke="#000000" stroke-width="11" stroke-linecap="round" stroke-miterlimit="10"><path d="M17550 44.5c-27.97 0-54.822 11.123-74.6 30.9-19.777 19.778-30.9 46.63-30.9 74.6 0 27.97 11.123 54.822 30.9 74.6 19.778 19.777 46.63 30.9 74.6 30.9 27.97 0 54.822-11.123 74.6-30.9 19.777-19.778 30.9-46.63 30.9-74.6 0-27.97-11.123-54.822-30.9-74.6-19.778-19.777-46.63-30.9-74.6-30.9z" fill="none"/><path d="M17495 94.5c-3.844 0-7.535 1.529-10.253 4.247s-4.247 6.409-4.247 10.253c0 3.844 1.529 7.535 4.247 10.253s6.409 4.247 10.253 4.247c3.844 0 7.535-1.529 10.253-4.247s4.247-6.409 4.247-10.253c0-3.844-1.529-7.535-4.247-10.253s-6.409-4.247-10.253-4.247zm112 0c-3.844 0-7.535 1.529-10.253 4.247s-4.247 6.409-4.247 10.253c0 3.844 1.529 7.535 4.247 10.253s6.409 4.247 10.253 4.247c3.844 0 7.535-1.529 10.253-4.247s4.247-6.409 4.247-10.253c0-3.844-1.529-7.535-4.247-10.253s-6.409-4.247-10.253-4.247z" fill="#000000"/><path d="M17489.5 209.48c1.73-3.45 16.8-32.24 49-38 28.55-5.1 58.68 10.03 74 38" fill="none"/></g><g stroke="#000000" stroke-width="11" stroke-linecap="round" stroke-miterlimit="10"><path d="M17850 44.5c-27.97 0-54.822 11.123-74.6 30.9-19.777 19.778-30.9 46.63-30.9 74.6 0 27.97 11.123 54.822 30.9 74.6 19.778 19.777 46.63 30.9 74.6 30.9 27.97 0 54.822-11.123 74.6-30.9 19.777-19.778 30.9-46.63 30.9-74.6 0-27.97-11.123-54.822-30.9-74.6-19.778-19.777-46.63-30.9-74.6-30.9z" fill="none"/><path d="M17795 94.5c-3.844 0-7.535 1.529-10.253 4.247s-4.247 6.409-4.247 10.253c0 3.844 1.529 7.535 4.247 10.253s6.409 4.247 10.253 4.247c3.844 0 7.535-1.529 10.253-4.247s4.247-6.409 4.247-10.253c0-3.844-1.529-7.535-4.247-10.253s-6.409-4.247-10.253-4.247zm112 0c-3.844 0-7.535 1.529-10.253 4.247s-4.247 6.409-4.247 10.253c0 3.844 1.529 7.535 4.247 10.253s6.409 4.247 10.253 4.247c3.844 0 7.535-1.529 10.253-4.247s4.247-6.409 4.247-10.253c0-3.844-1.529-7.535-4.247-10.253s-6.409-4.247-10.253-4.247z" fill="#000000"/><path d="M17789.5 209.48c1.73-3.45 16.8-32.24 49-38 28.55-5.1 58.68 10.03 74 38" fill="none"/></g><g stroke="#000000" stroke-width="11" stroke-linecap="round" stroke-miterlimit="10"><path d="M18150 44.5c-27.97 0-54.822 11.123-74.6 30.9-19.777 19.778-30.9 46.63-30.9 74.6 0 27.97 11.123 54.822 30.9 74.6 19.778 19.777 46.63 30.9 74.6 30.9 27.97 0 54.822-11.123 74.6-30.9 19.777-19.778 30.9-46.63 30.9-74.6 0-27.97-11.123-54.822-30.9-74.6-19.778-19.777-46.63-30.9-74.6-30.9z" fill="none"/><path d="M18095 94.5c-3.844 0-7.535 1.529-10.253 4.247s-4.247 6.409-4.247 10.253c0 3.844 1.529 7.535 4.247 10.253s6.409 4.247 10.253 4.247c3.844 0 7.535-1.529 10.253-4.247s4.247-6.409 4.247-10.253c0-3.844-1.529-7.535-4.247-10.253s-6.409-4.247-10.253-4.247zm112 0c-3.844 0-7.535 1.529-10.253 4.247s-4.247 6.409-4.247 10.253c0 3.844 1.529 7.535 4.247 10.253s6.409 4.247 10.253 4.247c3.844 0 7.535-1.529 10.253-4.247s4.247-6.409 4.247-10.253c0-3.844-1.529-7.535-4.247-10.253s-6.409-4.247-10.253-4.247z" fill="#000000"/><path d="M18089.5 209.48c1.73-3.45 16.8-32.24 49-38 28.55-5.1 58.68 10.03 74 38" fill="none"/></g></svg>